<svg width="94" height="94" viewBox="0 0 94 94" fill="none" xmlns="http://www.w3.org/2000/svg">
<rect width="94" height="94" rx="10" fill="#F2F2F7"/>
<path fill-rule="evenodd" clip-rule="evenodd" d="M17 61L21.4741 37.9703H31.8196C36.2934 38.2547 38.5305 40.529 38.5305 44.5098C38.5305 51.3333 33.2178 55.3138 28.464 55.0294H23.4315L22.3129 61H17ZM24.5497 50.7648L25.9479 42.2352H29.5829C31.5402 42.2352 32.9381 43.0881 32.9381 44.7939C32.6587 49.6275 30.4217 50.4804 27.9052 50.7648H24.55H24.5497ZM37.491 55.0294L41.9648 32H47.2777L46.1592 37.9703H51.1921C55.6662 38.2547 57.3438 40.529 56.7847 43.3725L54.8274 55.0294H49.2351L51.1924 44.5098C51.4718 43.0881 51.4718 42.2352 49.5148 42.2352H45.3204L42.8039 55.0294H37.491ZM54.4692 61L58.943 37.9703H69.2888C73.7629 38.2547 76 40.529 76 44.5098C76 51.3333 70.6871 55.3138 65.9336 55.0294H60.9004L59.7818 61H54.4692ZM62.0186 50.7648L63.4168 42.2352H67.0521C69.0094 42.2352 70.4074 43.0881 70.4074 44.7939C70.128 49.6275 67.8909 50.4804 65.3745 50.7648H62.0189H62.0186Z" fill="#BF5AF2"/>
</svg>
