<svg width="94" height="94" viewBox="0 0 94 94" fill="none" xmlns="http://www.w3.org/2000/svg">
<rect width="94" height="94" rx="10" fill="#48484A"/>
<path d="M46.2472 17.0167C31.3069 17.0167 32.2397 23.5217 32.2397 23.5217L32.2563 30.2611H46.5136V32.2845H26.5935C26.5935 32.2845 17.0332 31.1959 17.0332 46.3311C17.0332 61.4668 25.3777 60.93 25.3777 60.93H30.3577V53.9065C30.3577 53.9065 30.0892 45.5285 38.5689 45.5285H52.7096C52.7096 45.5285 60.6543 45.6573 60.6543 37.8194V24.8597C60.6543 24.8597 61.8609 17.0167 46.2472 17.0167ZM38.3857 21.5488C38.7226 21.5485 39.0563 21.6149 39.3676 21.7442C39.679 21.8735 39.9618 22.0632 40.2001 22.3024C40.4383 22.5415 40.6272 22.8256 40.756 23.1381C40.8848 23.4507 40.9509 23.7857 40.9506 24.124C40.9509 24.4622 40.8848 24.7972 40.756 25.1098C40.6272 25.4224 40.4383 25.7064 40.2001 25.9456C39.9618 26.1848 39.679 26.3744 39.3676 26.5037C39.0563 26.633 38.7226 26.6994 38.3857 26.6991C38.0488 26.6994 37.7152 26.633 37.4038 26.5037C37.0925 26.3744 36.8096 26.1848 36.5714 25.9456C36.3332 25.7064 36.1443 25.4224 36.0155 25.1098C35.8867 24.7972 35.8206 24.4622 35.8209 24.124C35.8206 23.7857 35.8867 23.4507 36.0155 23.1381C36.1443 22.8256 36.3332 22.5415 36.5714 22.3024C36.8096 22.0632 37.0925 21.8735 37.4038 21.7442C37.7152 21.6149 38.0488 21.5485 38.3857 21.5488V21.5488Z" fill="#007AFF"/>
<path d="M46.6716 75.7978C61.6119 75.7978 60.6791 69.2928 60.6791 69.2928L60.6625 62.5536H46.405V60.5302H66.325C66.325 60.5302 75.8854 61.6188 75.8854 46.4831C75.8854 31.3477 67.5409 31.8844 67.5409 31.8844H62.5609V38.9078C62.5609 38.9078 62.8294 47.2858 54.3496 47.2858H40.2089C40.2089 47.2858 32.2643 47.1569 32.2643 54.9951V67.955C32.2643 67.955 31.0579 75.7978 46.6714 75.7978H46.6716ZM54.5331 71.2661C54.1962 71.2664 53.8625 71.2 53.5512 71.0707C53.2399 70.9414 52.957 70.7518 52.7188 70.5126C52.4805 70.2734 52.2916 69.9894 52.1628 69.6768C52.034 69.3642 51.9679 69.0292 51.9682 68.691C51.9679 68.3527 52.034 68.0176 52.1627 67.7051C52.2915 67.3925 52.4804 67.1084 52.7187 66.8692C52.9569 66.63 53.2398 66.4403 53.5511 66.311C53.8625 66.1817 54.1961 66.1152 54.5331 66.1156C54.87 66.1152 55.2036 66.1816 55.515 66.311C55.8263 66.4403 56.1092 66.6299 56.3474 66.8691C56.5856 67.1083 56.7745 67.3923 56.9033 67.7049C57.0321 68.0175 57.0982 68.3525 57.0979 68.6907C57.0982 69.029 57.0321 69.364 56.9033 69.6766C56.7745 69.9891 56.5856 70.2731 56.3474 70.5123C56.1092 70.7515 55.8263 70.9412 55.515 71.0705C55.2036 71.1998 54.87 71.2662 54.5331 71.2659V71.2661Z" fill="#FFD60C"/>
</svg>
