<svg width="94" height="94" viewBox="0 0 94 94" fill="none" xmlns="http://www.w3.org/2000/svg">
<rect width="94" height="94" rx="10" fill="#F2F2F7"/>
<path d="M33.2557 33.0627L29.4424 29.2494L29.4585 56.8135L29.5041 58.1018C29.523 58.7079 29.6355 59.3919 29.8231 60.1009L60.0385 70.7554L67.5914 67.409L67.5942 67.3998L33.2557 33.0627Z" fill="#00D2B8"/>
<path d="M29.8233 60.1009L29.8252 60.1027C29.8233 60.0903 29.8169 60.0764 29.8169 60.0635C29.8169 60.0764 29.8187 60.0884 29.8233 60.1009ZM67.5916 67.409L60.0387 70.7554L29.8252 60.1027C30.4023 62.3171 31.68 64.8061 33.055 66.1673L42.9154 75.9714L64.8398 76L67.5944 67.3998L67.5916 67.409Z" fill="#55DDCA"/>
<path d="M17.6995 46.9876C16.7232 48.0298 17.2081 50.1796 18.7799 51.7634L25.5598 58.5996L29.8235 60.1009C29.6359 59.3919 29.5234 58.7079 29.5045 58.1018L29.4589 56.8135L29.4428 29.2494L17.6995 46.9876Z" fill="#0081C6"/>
<path d="M60.2865 29.6034C59.5776 29.4223 58.8977 29.3103 58.2814 29.2909L56.9198 29.2439L29.4424 29.2476L67.5979 67.3998H67.6011L70.9521 59.8395L60.2865 29.6034Z" fill="#0079B3"/>
<path d="M60.252 29.5961C60.2667 29.5993 60.2782 29.6034 60.2879 29.6048L60.2865 29.6034C60.2782 29.5993 60.2667 29.5993 60.252 29.5961ZM66.3474 32.8406C64.9627 31.4444 62.5064 30.1755 60.2879 29.6048L70.9522 59.8396L67.6011 67.3999H67.5979L75.7869 64.7845L75.8044 42.3332L66.3474 32.8406Z" fill="#00A4E4"/>
<path d="M58.7926 25.3655L51.9583 18.5814C50.3777 17.0156 48.227 16.5284 47.1875 17.5019L29.4424 29.2475L56.9198 29.2439L58.2814 29.2909C58.8977 29.3102 59.5775 29.4222 60.2865 29.6034L58.7926 25.3655Z" fill="#00D2B8"/>
</svg>
