<svg width="94" height="94" viewBox="0 0 94 94" fill="none" xmlns="http://www.w3.org/2000/svg">
<rect width="94" height="94" rx="10" fill="#007AFF"/>
<path d="M46.4258 48.0078V80H42.251V48.0078H46.4258ZM56.709 48.0078V51.4795H31.9897V48.0078H56.709Z" fill="white"/>
<path d="M78.1543 71.9141C78.1543 71.167 78.0371 70.5078 77.8027 69.9365C77.583 69.3506 77.1875 68.8232 76.6162 68.3545C76.0596 67.8857 75.2832 67.439 74.2871 67.0142C73.3057 66.5894 72.0605 66.1572 70.5518 65.7178C68.9697 65.249 67.5415 64.729 66.2671 64.1577C64.9927 63.5718 63.9014 62.9053 62.9932 62.1582C62.085 61.4111 61.3892 60.5542 60.9058 59.5874C60.4224 58.6206 60.1807 57.5146 60.1807 56.2695C60.1807 55.0244 60.437 53.8745 60.9497 52.8198C61.4624 51.7651 62.1948 50.8496 63.147 50.0732C64.1138 49.2822 65.2637 48.667 66.5967 48.2275C67.9297 47.7881 69.4165 47.5684 71.0571 47.5684C73.4595 47.5684 75.4956 48.0298 77.1655 48.9526C78.8501 49.8608 80.1318 51.0547 81.0107 52.5342C81.8896 53.999 82.3291 55.5664 82.3291 57.2363H78.1104C78.1104 56.0352 77.854 54.9731 77.3413 54.0503C76.8286 53.1128 76.0522 52.3804 75.0122 51.853C73.9722 51.311 72.6538 51.04 71.0571 51.04C69.5483 51.04 68.3032 51.2671 67.3218 51.7212C66.3403 52.1753 65.6079 52.7905 65.1245 53.5669C64.6558 54.3433 64.4214 55.2295 64.4214 56.2256C64.4214 56.8994 64.5605 57.5146 64.8389 58.0713C65.1318 58.6133 65.5786 59.1187 66.1792 59.5874C66.7944 60.0562 67.5708 60.4883 68.5083 60.8838C69.4604 61.2793 70.5957 61.6602 71.9141 62.0264C73.7305 62.5391 75.2979 63.1104 76.6162 63.7402C77.9346 64.3701 79.0186 65.0806 79.8682 65.8716C80.7324 66.6479 81.3696 67.5342 81.7798 68.5303C82.2046 69.5117 82.417 70.625 82.417 71.8701C82.417 73.1738 82.1533 74.353 81.626 75.4077C81.0986 76.4624 80.3442 77.3633 79.3628 78.1104C78.3813 78.8574 77.2021 79.436 75.8252 79.8462C74.4629 80.2417 72.9395 80.4395 71.2549 80.4395C69.7754 80.4395 68.3179 80.2344 66.8823 79.8242C65.4614 79.4141 64.165 78.7988 62.9932 77.9785C61.8359 77.1582 60.9058 76.1475 60.2026 74.9463C59.5142 73.7305 59.1699 72.3242 59.1699 70.7275H63.3887C63.3887 71.8262 63.6011 72.771 64.0259 73.562C64.4507 74.3384 65.0293 74.9829 65.7617 75.4956C66.5088 76.0083 67.3511 76.3892 68.2886 76.6382C69.2407 76.8726 70.2295 76.9897 71.2549 76.9897C72.7344 76.9897 73.9868 76.7847 75.0122 76.3745C76.0376 75.9644 76.814 75.3784 77.3413 74.6167C77.8833 73.855 78.1543 72.9541 78.1543 71.9141Z" fill="white"/>
</svg>
