<svg width="94" height="94" viewBox="0 0 94 94" fill="none" xmlns="http://www.w3.org/2000/svg">
<rect width="94" height="94" rx="10" fill="#333333"/>
<path d="M69.2334 49.9887C67.0307 50.0011 65.1233 50.5276 63.5235 51.3116C62.9329 50.1481 62.3422 49.1314 62.2439 48.3722C62.1331 47.4903 61.9978 46.9513 62.1331 45.8981C62.2684 44.8447 62.8836 43.3505 62.8836 43.228C62.8712 43.1178 62.7482 42.5789 61.4808 42.5667C60.2134 42.5544 59.1181 42.8116 58.995 43.1423C58.872 43.473 58.6259 44.2324 58.4659 45.0162C58.2444 46.1675 55.9309 50.2459 54.6142 52.3892C54.1835 51.5564 53.8143 50.8216 53.7403 50.2335C53.6297 49.3518 53.4942 48.8128 53.6297 47.7597C53.7651 46.7062 54.3804 45.2122 54.3804 45.0897C54.3681 44.9795 54.245 44.4406 52.9776 44.4283C51.71 44.4161 50.6149 44.6733 50.4919 45.0039C50.3688 45.3346 50.2334 46.1185 49.9627 46.8778C49.7042 47.6372 46.6277 54.4468 45.8279 56.2227C45.4218 57.1291 45.065 57.8517 44.8065 58.3416C44.5481 58.8315 44.7942 58.3783 44.7696 58.4273C44.5481 58.8437 44.425 59.0764 44.425 59.0764V59.0888C44.2527 59.395 44.0681 59.6888 43.9819 59.6888C43.9203 59.6888 43.7973 58.8682 44.0065 57.7416C44.4618 55.3777 45.5693 51.6913 45.5571 51.5565C45.5571 51.4953 45.7662 50.8461 44.8433 50.5155C43.945 50.1848 43.6251 50.7359 43.5512 50.7359C43.4773 50.7359 43.4158 50.9319 43.4158 50.9319C43.4158 50.9319 44.4126 46.7801 41.5084 46.7801C39.6872 46.7801 37.1768 48.752 35.9339 50.5524C35.1463 50.981 33.4728 51.8872 31.7007 52.8549C31.0239 53.2223 30.3225 53.6143 29.658 53.9694L29.5227 53.8222C26.0033 50.0867 19.4935 47.4412 19.7643 42.4197C19.8627 40.5948 20.5026 35.7815 32.267 29.9517C41.9024 25.1751 49.6182 26.4856 50.9594 29.4005C52.8668 33.5647 46.8369 41.3052 36.8202 42.4197C33.0054 42.8484 30.9994 41.3787 30.495 40.8275C29.9659 40.2519 29.892 40.2274 29.6951 40.3376C29.3752 40.5091 29.5721 41.0235 29.6951 41.3297C29.9905 42.1013 31.221 43.473 33.313 44.1589C35.1465 44.759 39.6259 45.0897 45.0404 43.0076C51.1072 40.6683 55.8449 34.1771 54.4543 28.7514C53.0392 23.2277 43.8345 21.4151 35.1343 24.4892C29.9534 26.3264 24.342 29.1923 20.3057 32.9523C15.5065 37.4104 14.7435 41.3052 15.0635 42.9219C16.1834 48.6905 24.1697 52.4505 27.3692 55.2307C27.2092 55.3163 27.0616 55.402 26.9262 55.4756C25.3265 56.2594 19.2351 59.4316 17.7092 62.7873C15.9864 66.5841 17.9799 69.3154 19.3089 69.6829C23.4191 70.8219 27.6276 68.7765 29.9042 65.4084C32.1683 62.0404 31.8977 57.668 30.8517 55.6716L30.8147 55.5981L32.0699 54.8633C32.8822 54.3856 33.6821 53.9447 34.3834 53.5649C33.9897 54.6304 33.7066 55.8919 33.559 57.7291C33.3867 59.8848 34.2728 62.6771 35.4418 63.7794C35.9586 64.2569 36.5739 64.2693 36.9554 64.2693C38.309 64.2693 38.9243 63.1546 39.6011 61.8198C40.4379 60.1908 41.1763 58.3047 41.1763 58.3047C41.1763 58.3047 40.2534 63.412 42.776 63.412C43.699 63.412 44.6219 62.2239 45.0403 61.6116V61.6238C45.0403 61.6238 45.0649 61.5871 45.1141 61.5013C45.1658 61.4254 45.215 61.3478 45.2618 61.2688V61.2443C45.631 60.6074 46.4555 59.1499 47.686 56.7371C49.2734 53.6263 50.7994 49.7315 50.7994 49.7315C50.7994 49.7315 50.9471 50.6868 51.4024 52.2545C51.673 53.1855 52.2636 54.2019 52.719 55.194C52.3498 55.7083 52.1283 56.0024 52.1283 56.0024L52.1406 56.0147C51.8454 56.4066 51.513 56.8231 51.1686 57.2394C49.9134 58.7336 48.4121 60.4362 48.2152 60.9261C47.9814 61.5016 48.0306 61.9302 48.4859 62.2733C48.8182 62.5183 49.4088 62.5671 50.0364 62.5183C51.1686 62.4446 51.9561 62.1631 52.3499 61.9915C52.9652 61.771 53.6666 61.4403 54.3434 60.9504C55.574 60.0442 56.3247 58.7582 56.2508 57.0436C56.2139 56.1005 55.9063 55.1697 55.5248 54.2879C55.6356 54.1287 55.7464 53.9693 55.8571 53.798C57.8014 50.9686 59.3027 47.8579 59.3027 47.8579C59.3027 47.8579 59.4503 48.8132 59.9057 50.3809C60.1393 51.177 60.6071 52.0467 61.0255 52.904C59.2042 54.386 58.0598 56.1006 57.666 57.2274C56.94 59.3095 57.506 60.2526 58.5766 60.473C59.0564 60.571 59.7457 60.3506 60.2624 60.1301C60.9023 59.9219 61.6776 59.5666 62.3914 59.0401C63.622 58.1337 64.8033 56.8722 64.7418 55.1698C64.7049 54.386 64.4957 53.6144 64.2127 52.8795C65.7632 52.2426 67.7689 51.8752 70.3163 52.1814C75.7924 52.8183 76.8753 56.2231 76.6662 57.6438C76.457 59.0647 75.3126 59.8484 74.931 60.0934C74.5495 60.3261 74.4265 60.4119 74.4634 60.5833C74.5126 60.8406 74.6849 60.8282 75.0171 60.7793C75.4724 60.7057 77.8967 59.6158 77.9951 56.995C78.1428 53.6264 74.931 49.9521 69.2334 49.9887V49.9887ZM27 64.1592C25.1911 66.131 22.6438 66.8782 21.5609 66.2413C20.3919 65.5677 20.847 62.665 23.0745 60.5706C24.4281 59.2969 26.1879 58.1211 27.3446 57.3985C27.603 57.2393 27.9968 57.0067 28.4644 56.7249C28.5383 56.676 28.5875 56.6514 28.5875 56.6514C28.6736 56.6024 28.7721 56.5412 28.8705 56.4799C29.695 59.4684 28.9074 62.0893 27 64.1592V64.1592ZM40.2287 55.2062C39.6011 56.7371 38.2721 60.6686 37.4722 60.4482C36.783 60.2645 36.3647 57.2883 37.3368 54.3489C37.829 52.8668 38.875 51.1033 39.4903 50.4173C40.4872 49.315 41.5699 48.9476 41.8408 49.4007C42.1607 49.9887 40.6225 54.2509 40.2287 55.2062ZM51.144 60.3992C50.8732 60.534 50.6271 60.6319 50.5164 60.5585C50.4302 60.5095 50.627 60.3258 50.627 60.3258C50.627 60.3258 51.9929 58.8684 52.5344 58.1947C52.842 57.8029 53.2112 57.3498 53.605 56.8353V56.9822C53.6051 58.7457 51.9069 59.9215 51.144 60.3992ZM59.561 58.4886C59.3641 58.3416 59.3888 57.8884 60.0532 56.4677C60.3117 55.9043 60.9023 54.9612 61.9237 54.0672C62.0467 54.4346 62.1207 54.7897 62.1083 55.1205C62.0961 57.325 60.5209 58.1456 59.561 58.4886Z" fill="#CF649A"/>
</svg>
