<svg width="94" height="94" viewBox="0 0 94 94" fill="none" xmlns="http://www.w3.org/2000/svg">
<rect width="94" height="94" rx="10" fill="#FFCC00"/>
<path d="M48.8647 70.6616V48.0078H53.0835V70.6616C53.0835 72.771 52.6514 74.5508 51.7871 76.001C50.9229 77.4512 49.729 78.5571 48.2056 79.3188C46.6968 80.0659 44.9609 80.4395 42.998 80.4395C41.0352 80.4395 39.292 80.1025 37.7686 79.4287C36.2451 78.7549 35.0513 77.7295 34.187 76.3525C33.3228 74.9756 32.8906 73.2397 32.8906 71.145H37.1313C37.1313 72.4927 37.3804 73.5986 37.8784 74.4629C38.3765 75.3271 39.0649 75.9644 39.9438 76.3745C40.8374 76.7847 41.8555 76.9897 42.998 76.9897C44.1113 76.9897 45.1074 76.7554 45.9863 76.2866C46.8799 75.8032 47.583 75.0928 48.0957 74.1553C48.6084 73.2031 48.8647 72.0386 48.8647 70.6616Z" fill="white"/>
<path d="M77.3193 71.9141C77.3193 71.167 77.2021 70.5078 76.9678 69.9365C76.748 69.3506 76.3525 68.8232 75.7812 68.3545C75.2246 67.8857 74.4482 67.439 73.4521 67.0142C72.4707 66.5894 71.2256 66.1572 69.7168 65.7178C68.1348 65.249 66.7065 64.729 65.4321 64.1577C64.1577 63.5718 63.0664 62.9053 62.1582 62.1582C61.25 61.4111 60.5542 60.5542 60.0708 59.5874C59.5874 58.6206 59.3457 57.5146 59.3457 56.2695C59.3457 55.0244 59.6021 53.8745 60.1147 52.8198C60.6274 51.7651 61.3599 50.8496 62.312 50.0732C63.2788 49.2822 64.4287 48.667 65.7617 48.2275C67.0947 47.7881 68.5815 47.5684 70.2222 47.5684C72.6245 47.5684 74.6606 48.0298 76.3306 48.9526C78.0151 49.8608 79.2969 51.0547 80.1758 52.5342C81.0547 53.999 81.4941 55.5664 81.4941 57.2363H77.2754C77.2754 56.0352 77.019 54.9731 76.5063 54.0503C75.9937 53.1128 75.2173 52.3804 74.1772 51.853C73.1372 51.311 71.8188 51.04 70.2222 51.04C68.7134 51.04 67.4683 51.2671 66.4868 51.7212C65.5054 52.1753 64.7729 52.7905 64.2896 53.5669C63.8208 54.3433 63.5864 55.2295 63.5864 56.2256C63.5864 56.8994 63.7256 57.5146 64.0039 58.0713C64.2969 58.6133 64.7437 59.1187 65.3442 59.5874C65.9595 60.0562 66.7358 60.4883 67.6733 60.8838C68.6255 61.2793 69.7607 61.6602 71.0791 62.0264C72.8955 62.5391 74.4629 63.1104 75.7812 63.7402C77.0996 64.3701 78.1836 65.0806 79.0332 65.8716C79.8975 66.6479 80.5347 67.5342 80.9448 68.5303C81.3696 69.5117 81.582 70.625 81.582 71.8701C81.582 73.1738 81.3184 74.353 80.791 75.4077C80.2637 76.4624 79.5093 77.3633 78.5278 78.1104C77.5464 78.8574 76.3672 79.436 74.9902 79.8462C73.6279 80.2417 72.1045 80.4395 70.4199 80.4395C68.9404 80.4395 67.4829 80.2344 66.0474 79.8242C64.6265 79.4141 63.3301 78.7988 62.1582 77.9785C61.001 77.1582 60.0708 76.1475 59.3677 74.9463C58.6792 73.7305 58.335 72.3242 58.335 70.7275H62.5537C62.5537 71.8262 62.7661 72.771 63.1909 73.562C63.6157 74.3384 64.1943 74.9829 64.9268 75.4956C65.6738 76.0083 66.5161 76.3892 67.4536 76.6382C68.4058 76.8726 69.3945 76.9897 70.4199 76.9897C71.8994 76.9897 73.1519 76.7847 74.1772 76.3745C75.2026 75.9644 75.979 75.3784 76.5063 74.6167C77.0483 73.855 77.3193 72.9541 77.3193 71.9141Z" fill="white"/>
</svg>
